<?xml version="1.0" encoding="UTF-8" standalone="no"?>
<svg
   xmlns:svg="http://www.w3.org/2000/svg"
   xmlns="http://www.w3.org/2000/svg"
   width="800.0"
   height="240.0"

>
    <g transform="scale(23.253823911819495, -23.253823911819495)   translate(17.09546128768249,-2.688606301331327)" stroke-width="0.04300367990194156"  fill="none">
       <!-- hidden lines -->
       <g  stroke="rgb(160, 160, 160)" fill="none" stroke-dasharray="0.04300367990194156,0.04300367990194156" >
			<path d="M8.494725207294158,0.6044775232228378 L8.494725207294158,-2.3328645539097823 " />
			<path d="M4.904431885123182,-2.5883468163808363 L8.494725207294156,-2.3328645539097823 " />
			<path d="M4.904431885123182,-2.5883468163808363 L4.721408664059023,-2.602753445845881 " />
			<path d="M4.721408664686569,-2.602753445791621 L4.721408664686569,-4.560981497213366 " />
			<path d="M4.721408664686569,-4.560981497213367 L4.554326083502147,-4.576675537795372 L4.392291496186623,-4.594423138081144 L4.235914786263759,-4.61415749770923 L4.085784541518816,-4.635804338335798 L3.942465838607374,-4.659282183211603 L3.8064981161579476,-4.684502663853099 L3.678393144373801,-4.711370852653409 L3.5586330987762125,-4.739785620181255 L3.4476687453394446,-4.769640015822981 L3.345917743848408,-4.800821670334986 L3.2537630758650304,-4.833213218791386 L3.1715516032203115,-4.866692742334979 L3.099592762457776,-4.901134227068787 L3.0381574001423317,-4.9364080383609625 L2.9874767534183033,-4.972381408777811 L2.9477415796537527,-5.008918937808396 " />
			<path d="M8.494725207294158,-2.3328645539097823 L8.563761118530083,-2.3745684667866396 L8.627844708452091,-2.4165978249563826 L8.686938918281472,-2.458928323340508 L8.741009574538737,-2.501535482714704 L8.79002540880576,-2.5443946638648933 L8.83395807580791,-2.5874810818358025 L8.872782169805799,-2.630769820263802 L8.90647523928711,-2.674235845785747 L8.935017799950057,-2.717854022515472 L8.958393345970896,-2.761599126579576 L8.976588359549078,-2.8054458607040877 L8.989592318724416,-2.84936886884358 L8.997397703461811,-2.893342750844268 L9.000000000000002,-2.9373420771326186 " />
			<path d="M3.790105187679332,-3.6003727505073346 L3.931134831528076,-3.5655126144816833 L4.064413958232852,-3.5294140595099432 L4.189679966704514,-3.4921482179628582 L4.306685897875254,-3.4537885587524504 L4.415201074004138,-3.4144107077937473 L4.51501154391357,-3.3740923029471035 L4.605920531541688,-3.3329128327016337 L4.687748805465738,-3.2909534845589765 L4.760335043108092,-3.248296980507829 L4.823538926990232,-3.205025325168832 L4.8772356999604956,-3.16122268972102 L4.921315495135691,-3.1169775148035512 L4.955689816963167,-3.0723783141288785 L4.969215417231544,-3.049973624639635 L4.9802907515086385,-3.0275136358857555 L4.98891043977331,-3.0050094184857197 L4.995070316355009,-2.982472042673494 L4.9987674188802,-2.959912577640413 L4.999999979865101,-2.9373420908681847 " />
			<path d="M4.9999999798651,-2.937342090868182 L4.998901571024635,-2.9160351472797617 L4.995606826347706,-2.894737548510078 L4.990117170567579,-2.87345859775714 L4.9824349713255085,-2.852207594734894 L4.960507149467742,-2.8098266101173826 L4.929861333770022,-2.767668902300317 L4.890550992232723,-2.725808688455733 L4.84264546440202,-2.684320077344158 L4.7862304577735975,-2.6432770509718253 L4.7214086640590205,-2.6027534458458828 " />
			<path d="M-0.9910512741843196,-4.319877249294521 L-1.2062948659348707,-4.337115158452812 L-1.4143652397107802,-4.357673913403192 L-1.6140251075260779,-4.381431261755547 L-1.8040871943677699,-4.408245930722397 L-1.9834212983124864,-4.437958467195843 L-2.1509610112586843,-4.47039218593356 L-2.305710060309654,-4.505354220215472 L-2.446748232098367,-4.542636668723404 L-2.5732368448252436,-4.582017831823765 L-2.6844237354694322,-4.623263529901779 L-2.734068753244646,-4.644509327240141 L-2.7796477325172035,-4.666128495907751 L-2.8210928893718634,-4.688088884418989 L-2.8583425876104416,-4.710357833834642 L-2.8913414304156246,-4.732902226331455 L-2.920040342735722,-4.755688534454127 L-2.9443966442678557,-4.778682870976507 L-2.9643741129310364,-4.8018510392978175 L-2.979943038734732,-4.825158584298994 L-2.991080267962824,-4.848570843583466 L-2.9977692376072316,-4.872052999026204 L-3.0000000000000013,-4.895570128554364 " />
			<path d="M-3.0000000000000013,-4.8955701285543665 L-2.99680352173749,-4.923718843006554 L-2.9872208985988107,-4.951807572956167 L-2.971272551015004,-4.979776461726733 L-2.9489924646836534,-5.007565908021597 L-2.920428118145855,-5.035116692933422 L-2.8856403816101364,-5.062370106138816 L-2.844703387238923,-5.089268071009187 L-2.7977043711739755,-5.11575326837119 L-2.7447434876374346,-5.141769258653063 L-2.685933595504624,-5.167260602156529 L-2.621400017803427,-5.192172977197995 L-2.5512802746527266,-5.216453295867268 L-2.4757237902090248,-5.240049817157128 L-2.3948915742457326,-5.2629122572226565 L-2.218099832323977,-5.306241683703925 L-2.022411208618734,-5.346072434554631 L-1.8094928529735956,-5.382065175638773 L-1.5811587022265363,-5.413913270364335 L-1.3393540265547255,-5.441345392043364 L-1.0861388569379573,-5.464127835432802 L-0.8236704349288001,-5.482066507763153 L-0.5541848342468977,-5.495008582292611 L-0.2799779107704332,-5.50284380029934 L-0.003385743219416125,-5.505505410419734 L0.2732352688355471,-5.502970737330047 L0.5475284800859564,-5.495261374926567 L0.8171570766916603,-5.482443002358556 L1.0798239845348685,-5.464624824481244 L1.3332914389155375,-5.441958641495884 L1.575400048966046,-5.414637555702972 L1.8040871943677692,-5.382894326386336 L2.017404597640549,-5.346999386843467 L2.213534922299677,-5.307258540455838 L2.390807255474043,-5.264010355427287 L2.471893083447922,-5.241185068120355 L2.547711343082806,-5.217623280385744 L2.618100466766143,-5.193375202051663 L2.682910456295422,-5.16849250542165 L2.7420032025221586,-5.14302821516163 L2.795252779660496,-5.117036595305129 L2.842545713633227,-5.090573033617399 L2.883781223883409,-5.063693923564894 L2.9188714381362693,-5.036456544141615 L2.9477415796537456,-5.008918937808403 " />
			<path d="M-0.9910512741843176,-4.319877249294521 L-0.8192790015941838,-4.306437930527162 L-0.6518834916074903,-4.290882340237747 L-0.4894948057758166,-4.273269028260464 L-0.3327241604177018,-4.253664289507725 L-0.18216162605573172,-4.232141914442118 L-0.03837390644448968,-4.208782911335779 L0.0980977944510939,-4.18367520136259 L0.22673980949849382,-4.156913287670833 L0.3470679417941849,-4.128597899681898 L0.4586292871369788,-4.09883561395385 L0.5610039387184536,-4.067738453036908 L0.6538065676141782,-4.035423463830711 L0.7366878731269155,-4.002012277030372 L0.8093358975228382,-3.96763064931955 L0.87147720021221,-3.9324079900336755 L0.9228778869550132,-3.896476874074925 " />
			<path d="M0.9228778869550194,-3.89647687407492 L0.9228778869550194,-1.9382488226531733 " />
			<path d="M0.9228778867972829,-1.9382488227775456 L0.9458252628448256,-1.9188480888689425 L0.9656390312851073,-1.8993051278669655 " />
			<path d="M4.721408664686569,-4.560981497213367 L4.759475109069773,-4.584071584292136 L4.794810157393165,-4.607340436019723 L4.827393531367744,-4.630774698728243 L4.857206531851852,-4.654360923822762 L4.884232049582345,-4.678085575499267 L4.908454574993369,-4.7019350385126675 L4.929860207117077,-4.725895625990397 L4.948436661561196,-4.749953587287115 L4.964173277558876,-4.774095115876013 L4.9770610240867486,-4.798306357272182 L4.9870925050477055,-4.822573416983514 L4.9942619635154175,-4.846882368484548 L4.998565285038152,-4.871219261208713 L5.0,-4.895570128554366 " />
			<path d="M-5.0,-4.8955701285543665 L-4.960701223443523,-4.768367159122924 L-4.8434226513096235,-4.643163758120684 L-4.650007845358765,-4.521928061739685 L-4.383497191687657,-4.406565835797027 L-4.048080107347717,-4.298890518028861 L-3.649029184759226,-4.200594711736635 L-3.192617309138768,-4.113223578891513 L-2.6860190518134353,-4.038150550944365 L-2.13719788947064,-3.976555739155475 L-1.5547810222017313,-3.929407383823054 L-0.9479237581385199,-3.8974466340195897 L-0.32616559648984333,-3.8811758970911217 L0.3007197287175787,-3.8808509410596344 L0.9228778869549752,-3.896476874074919 " />
			<path d="M0.9228778867972831,-1.9382488227775454 L0.5999410209882325,-1.9281269474260605 L0.2743851631029268,-1.9223144587541912 L-0.0523522930405812,-1.9208383506382771 L-0.37885248003777683,-1.9237049469121137 L-0.703714821169414,-1.9309012873259237 L-1.0255571025498098,-1.942396073201009 L-1.3430158286419092,-1.9581402484763932 L-1.6547468637943452,-1.9780672654267792 L-1.9594263896207513,-2.0020930579141556 L-2.255752235206587,-2.030115718618395 L-2.5424456642937843,-2.0620148502752 L-2.8182537307585256,-2.0976505345327645 L-3.0819736869563887,-2.1368652316267838 L-3.332575422677927,-2.1795056031771987 L-3.5689652264529492,-2.225387868082777 L-3.7901051906169094,-2.2743114032440115 " />
			<path d="M-4.719291781830087,-3.2731629233675297 L-4.662722179767814,-3.3043761771957167 L-4.601159785347254,-3.33519641482356 L-4.534670520753333,-3.365590632028093 L-4.463325569115077,-3.395526289446162 L-4.387201346431574,-3.4249713236623323 L-4.306379338526163,-3.4538942156929733 L-4.130993145817718,-3.5100502581794313 L-3.9379179851808335,-3.5637539599859402 L-3.727980620079298,-3.6147753575628676 L-3.502079994400091,-3.6628959785946393 L-3.261183414127465,-3.7079097709309536 L-3.0063224079862048,-3.749623982714583 L-2.7385883017825963,-3.7878599929548002 L-2.4591275357173727,-3.822454074522451 L-2.1691367462597246,-3.8532580976465636 L-1.8698576983277713,-3.8801401569236313 L-1.5625710586469626,-3.9029851994330143 L-1.2485619721178616,-3.921696969534053 L-0.9291865919685554,-3.9361935982252887 " />
			<path d="M-3.790105190742641,-2.2743114032220193 L-3.790105190742641,0.6630306739106009 " />
			<path d="M-4.719291781830087,-3.2731629233675297 L-4.719291781830087,-0.33582084623491 " />
			<path d="M1.6725358639574095,-1.1394093408707002 L0.9656390312851137,-1.8993051278669602 " />
			<path d="M1.6725358639574095,-0.5063496310578941 L1.6725358639574095,-1.1394093408707002 " />
			<path d="M-6.822189343336751,-0.4854612735061057 L-6.822189343336751,-1.7438868640935383 " />
			<path d="M-6.822189343336751,-1.7438868640935385 L-6.36444216932225,-1.643570960062385 L-5.871102453039599,-1.5504903489201503 L-5.344929150299409,-1.4651655752013415 L-4.788864835646298,-1.3880738096515335 L-4.206019246288425,-1.3196461806950037 L-3.599651891185587,-1.2602653633896983 L-2.973153822552942,-1.2102634393530831 L-2.3300286717214824,-1.169920039627033 L-1.6738730554104242,-1.1394607808676185 L-1.0083564619875962,-1.1190560036052426 L-0.3372007302019986,-1.1088198196313035 L0.3358407648481969,-1.1088094738387648 L1.0070041021117064,-1.1190250240854942 L1.6725358639573304,-1.1394093408706978 " />
			<path d="M-3.7901051907426404,-2.2743114032220193 L-6.8221893433367535,-1.7438868640935383 " />
			<path d="M-8.494725207294158,-3.5418196003554576 L-4.719291781830088,-3.2731629233675297 " />
			<path d="M-3.0000000000000004,-4.895570128554365 L-3.0000000000000004,0.0 " />
			<path d="M5.0,-2.93734207713262 L5.0,-3.812028451972635 " />
			<path d="M-5.0,-4.4587889479598095 L-5.0,-0.35579580767592134 " />

       </g>

       <!-- solid lines -->
       <g  stroke="rgb(0, 0, 0)" fill="none">
			<path d="M4.904431885123182,0.34899526075178366 L8.494725207294156,0.6044775232228377 " />
			<path d="M4.904431885123182,0.3489952607517838 L4.721359931806619,0.33458441758361224 L4.543315754404891,0.31777007856731043 L4.3710617654194746,0.2986242452839305 L4.205335582876116,0.2772289031309133 L4.046846871731213,0.2536756702480311 L3.8962743049775184,0.2280654051944463 L3.754262657462191,0.20050777505687783 L3.6214200448619174,0.1711207858382991 L3.4983153196382206,0.14003027713811667 L3.3854756351238895,0.10736938328768653 L3.2833841881714783,0.07327796324866787 L3.192478150030201,0.03790200171547775 L3.113146794311528,0.0013929839864177673 L3.045729830059817,-0.03609275271963 L2.9905159470660347,-0.07439468872317542 L2.967561117230339,-0.09380059425746565 L2.947741579653753,-0.11334880925402799 " />
			<path d="M8.494725207294158,0.6044775232228378 L8.563761118530083,0.5627736103459805 L8.627844708452091,0.5207442521762372 L8.686938918281472,0.47841375379211176 L8.741009574538737,0.43580659441791614 L8.79002540880576,0.39294741326772653 L8.83395807580791,0.3498609952968176 L8.872782169805799,0.30657225686881784 L8.90647523928711,0.2631062313468726 L8.935017799950057,0.2194880546171475 L8.958393345970896,0.1757429505530438 L8.976588359549078,0.13189621642853216 L8.989592318724416,0.08797320828904004 L8.997397703461811,0.04399932628835157 L9.000000000000002,1.2351231148954867e-15 " />
			<path d="M9.000000000000002,2.220446049250313e-16 L8.988411714788434,-0.09282581588626182 L8.953676701010206,-0.18541258909930458 L8.895884407386763,-0.27752189254250326 L8.815183659158444,-0.36891652868720504 L8.711782274833531,-0.45936114039775355 L8.585946531019319,-0.5486228170171823 L8.43800047671339,-0.6364716941527957 L8.268325098820902,-0.722681545617091 L8.077357341046842,-0.8070303659996645 L7.865588978689711,-0.8893009423698821 L7.633565352234354,-0.9692814136380783 L7.381883963005036,-1.0467658161348279 L7.111192934495271,-1.121554614003335 L6.822189343336762,-1.193455213039079 " />
			<path d="M2.947741579653749,-0.11334880925403079 L2.9188714381362675,-0.14088641558724824 L2.883781223883407,-0.16812379501052743 L2.842545713633225,-0.1950029050630319 L2.7952527796604936,-0.22146646675076262 L2.7420032025221563,-0.24745808660726404 L2.68291045629542,-0.27292237686728354 L2.618100466766141,-0.29780507349729696 L2.547711343082803,-0.32205315183137717 L2.47189308344792,-0.3456149395659892 L2.390807255474041,-0.36844022687292 L2.213534922299675,-0.41168841190147165 L2.0174045976405464,-0.4514292582891006 L1.8040871943677668,-0.48732419783196906 L1.5754000489660458,-0.5190674271486049 L1.3332914389155377,-0.5463885129415162 L1.0798239845348687,-0.5690546959268773 L0.8171570766916606,-0.5868728738041895 L0.5475284800859569,-0.5996912463722005 L0.27323526883554783,-0.6074006087756804 L-0.0033857432194153284,-0.6099352818653672 L-0.2799779107704323,-0.6072736717449733 L-0.5541848342468967,-0.5994384537382443 L-0.823670434928799,-0.5864963792087862 L-1.086138856937956,-0.5685577068784344 L-1.3393540265547241,-0.5457752634889975 L-1.581158702226535,-0.5183431418099689 L-1.809492852973594,-0.4864950470844061 L-2.0224112086187334,-0.4505023060002642 L-2.2180998323239756,-0.41067155514955767 L-2.39489157424573,-0.3673421286682905 L-2.4757237902090226,-0.34447968860276157 L-2.551280274652724,-0.32088316731290223 L-2.621400017803425,-0.29660284864362857 L-2.685933595504622,-0.2716904736021627 L-2.7447434876374324,-0.24619913009869632 L-2.797704371173974,-0.22018313981682344 L-2.844703387238922,-0.19369794245481992 L-2.8856403816101355,-0.16679997758444973 L-2.920428118145854,-0.13954656437905547 L-2.9489924646836525,-0.11199577946723067 L-2.9712725510150033,-0.08420633317236587 L-2.98722089859881,-0.05623744440180021 L-2.996803521737489,-0.028148714452188178 L-3.0000000000000004,-5.5247633294039545e-15 " />
			<path d="M-3.0000000000000004,4.1944821532024076e-17 L-2.9977692376072307,0.023517129528162935 L-2.9910802679628232,0.046999284970900945 L-2.979943038734731,0.07041154425537219 L-2.9643741129310355,0.09371908925654894 L-2.944396644267855,0.11688725757786028 L-2.9200403427357213,0.13988159410023915 L-2.8913414304156237,0.1626679022229117 L-2.858342587610441,0.18521229471972447 L-2.821092889371862,0.2074812441353777 L-2.7796477325172027,0.22944163264661607 L-2.7340687532446455,0.25106080131422526 L-2.6844237354694314,0.2723065986525875 L-2.5732368448252423,0.3135522967306015 L-2.446748232098366,0.35293345983096314 L-2.305710060309653,0.39021590833889414 L-2.150961011258683,0.42517794262080744 L-1.9834212983124844,0.4576116613585235 L-1.804087194367768,0.4873241978319693 L-1.6140251075260754,0.5141388667988195 L-1.414365239710778,0.537896215151174 L-1.2062948659348685,0.5584549701015551 L-0.9910512741843244,0.5756928792598452 " />
			<path d="M6.82218934333675,-1.193455213039082 L3.790105190742639,-0.6630306739106012 " />
			<path d="M-0.9910512741843176,0.5756928792598454 L-0.8079793208677539,0.5901037224280169 L-0.6299351434660285,0.6069180614443185 L-0.45768115448061275,0.6260638947276984 L-0.29195497193725295,0.6474592368807156 L-0.13346626079234936,0.671012469763598 L0.017106305961344548,0.6966227348171827 L0.15911795347667068,0.7241803649547509 L0.2919605660769453,0.7535673541733299 L0.41506529130064296,0.7846578628735125 L0.5279049758149732,0.8173187567239424 L0.629996422767384,0.8514101767629608 L0.7209024609086616,0.8867861382961513 L0.800233816627336,0.9232951560252114 L0.867650780879047,0.9607808927312594 L0.9228646638728288,0.9990828287348049 L0.945819493708524,1.0184887342690947 L0.9656390312851073,1.0380369492656545 " />
			<path d="M3.7901051907425565,-0.6630306739106206 L3.535801205178951,-0.7187617317057018 L3.261723585021932,-0.7704731823402728 L2.969405083499616,-0.8178758344062742 L2.6604804642479025,-0.8607045930450531 L2.3366773590490997,-0.8987199424653449 L1.9998066062142068,-0.9317092854127349 L1.6517521236405341,-0.959488132099742 L1.2944603731786315,-0.9819011319475466 L0.9299294752280641,-0.9988229423694434 L0.560198034437625,-1.0101589297374303 L0.18733373900120154,-1.0158456986118416 L-0.18657820269333159,-1.0158514462743649 L-0.5594467233952631,-1.0101761405817393 L-0.9291865910873012,-0.9988515201455166 " />
			<path d="M0.9656390312851135,1.03803694926566 L1.6725358639574093,1.79793273626192 " />
			<path d="M-0.9291865910874477,-0.998851520145511 L-1.6725358639574057,-1.7979327362619197 " />
			<path d="M-6.822189343336751,1.1934552130390816 L-6.36444216932225,1.2937711170702353 L-5.871102453039599,1.38685172821247 L-5.344929150299409,1.4721765019312787 L-4.788864835646298,1.5492682674810863 L-4.206019246288425,1.6176958964376162 L-3.599651891185587,1.6770767137429219 L-2.973153822552942,1.7270786377795369 L-2.3300286717214824,1.767422037505587 L-1.6738730554104242,1.7978812962650017 L-1.0083564619875962,1.8182860735273771 L-0.3372007302019986,1.8285222575013163 L0.3358407648481969,1.828532603293855 L1.0070041021117064,1.8183170530471255 L1.6725358639573304,1.7979327362619222 " />
			<path d="M-1.6725358639574064,-1.79793273626192 L-2.328714126808386,-1.7674936503063456 L-2.9718692756481526,-1.7271700228963058 L-3.5984045259964548,-1.677187360113058 L-4.204816038587067,-1.6178251852817362 L-4.7877125142582475,-1.5494154757635294 L-5.343834159473292,-1.4723408064036165 L-5.870070916408285,-1.387032210017445 L-6.363479855657013,-1.2939667668803843 L-6.821301634285958,-1.193664936701303 L-7.240975927199282,-1.0866876480007608 L-7.620155745515322,-0.9736331611711855 L-7.95672056188045,-0.8551337227620835 L-8.248788169318196,-0.7318520297008715 L-8.494725207294143,-0.6044775232228455 " />
			<path d="M-3.7901051907426413,0.6630306739106011 L-6.8221893433367535,1.1934552130390816 " />
			<path d="M-8.494725207294158,-0.604477523222838 L-4.719291781830088,-0.33582084623491 " />
			<path d="M-4.719291781830087,-0.33582084623491 L-4.757645065850046,-0.312652005747767 L-4.793247060251161,-0.2893023623201318 L-4.8260771768230395,-0.2657854187733954 L-4.856116430299299,-0.24211477467662007 L-4.883347449336534,-0.2183041184820702 L-4.907754486559951,-0.194367219609343 L-4.929323427669889,-0.17031792048267644 L-4.948041799603951,-0.14617012852604017 L-4.963898777750031,-0.12193780812063737 L-4.976885192206053,-0.09763497252946854 L-4.986993533082821,-0.07327567579362865 L-4.994217954846898,-0.04887400460502189 L-4.998554279701006,-0.024444070160194953 L-5.0,-4.56926163572291e-15 " />
			<path d="M-5.0,-5.551115123125783e-17 L-4.993562063771351,0.05156989771459147 L-4.974264833894557,0.10300699394406171 L-4.942158004103753,0.15417882919028525 L-4.897324255088018,0.20495362704845493 L-4.839879041574172,0.25520063355431716 L-4.769970295010715,0.30479045389844595 L-4.687778042618525,0.35359538564045534 L-4.593513943789359,0.4014897475650653 L-4.487420745025983,0.4483502033331631 L-4.369771654827569,0.4940560790943965 L-4.240869640130139,0.5384896742433957 L-4.10104664611384,0.5815365645193686 L-3.9506627413861826,0.6230858966685402 L-3.7901051907425836,0.6630306739106138 " />
			<path d="M6.82218934333675,-1.193455213039082 L6.82218934333675,-4.130797290171702 " />
			<path d="M9.000000000000002,-2.9373420771326195 L8.988411714788434,-3.0301678930188816 L8.953676701010206,-3.1227546662319248 L8.895884407386763,-3.2148639696751236 L8.815183659158444,-3.306258605819825 L8.711782274833531,-3.3967032175303737 L8.585946531019319,-3.4859648941498023 L8.43800047671339,-3.5738137712854154 L8.268325098820902,-3.660023622749711 L8.077357341046842,-3.744372443132284 L7.865588978689711,-3.8266430195025025 L7.633565352234354,-3.9066234907706985 L7.381883963005036,-3.984107893267448 L7.111192934495271,-4.0588966911359545 L6.822189343336762,-4.1307972901716985 " />
			<path d="M6.82218934333675,-4.130797290171702 L3.790105190742639,-3.600372751043221 " />
			<path d="M3.7901051907426386,-3.600372751043221 L3.7901051907426386,-0.663030673910601 " />
			<path d="M5.0,-4.8955701285543665 L4.874639560909118,-5.121775886902326 L4.504844339512096,-5.336638743973732 L3.909157412340149,-5.529384578925867 L3.1174490092936677,-5.690348310757714 L2.1694186955877908,-5.811458545829215 L1.1126046697815721,-5.886642311241585 L0.0,-5.912129579056984 L-1.1126046697815717,-5.886642311241585 L-2.1694186955877903,-5.811458545829215 L-3.1174490092936677,-5.690348310757713 L-3.9091574123401487,-5.529384578925867 L-4.504844339512095,-5.336638743973732 L-4.874639560909118,-5.121775886902327 L-4.999999999999997,-4.895570128554371 " />
			<path d="M-0.9291865910874473,-3.9361935972781312 L-0.9291865910874473,-0.998851520145511 " />
			<path d="M1.6725358639574095,1.7979327362619197 L1.6725358639574095,-0.5063496310578941 " />
			<path d="M-1.6725358639574064,-1.79793273626192 L-1.6725358639574064,-4.73527481339454 " />
			<path d="M-0.9291865910874477,-3.9361935972781312 L-1.6725358639574057,-4.73527481339454 " />
			<path d="M-6.822189343336751,1.1934552130390816 L-6.822189343336751,-0.4854612735061057 " />
			<path d="M-8.494725207294158,-0.604477523222838 L-8.494725207294158,-3.541819600355458 " />
			<path d="M-1.6725358639574064,-4.73527481339454 L-2.328714126808386,-4.704835727438965 L-2.9718692756481526,-4.664512100028926 L-3.5984045259964548,-4.614529437245678 L-4.204816038587067,-4.555167262414356 L-4.7877125142582475,-4.486757552896149 L-5.343834159473292,-4.409682883536236 L-5.870070916408285,-4.324374287150065 L-6.363479855657013,-4.231308844013004 L-6.821301634285958,-4.131007013833923 L-7.240975927199282,-4.024029725133381 L-7.620155745515322,-3.9109752383038052 L-7.95672056188045,-3.7924757998947034 L-8.248788169318196,-3.6691941068334915 L-8.494725207294143,-3.541819600355465 " />
			<path d="M-0.991051274184319,-0.5756928792598455 L-0.991051274184319,0.5756928792598455 " />
			<path d="M0.9656390312851131,-0.5774752498837556 L0.9656390312851131,1.0380369492656598 " />
			<path d="M9.000000000000002,2.220446049250313e-16 L9.000000000000002,-2.937342077132613 " />
			<path d="M5.0,-3.812028451972636 L5.0,-4.895570128554362 " />
			<path d="M-5.0,-4.8955701285543665 L-5.0,-4.4587889479598095 " />
			<path d="M-5.0,-0.35579580767591623 L-5.0,-1.1102230246251565e-14 " />

       </g>
    </g>
    <g transform="translate(20,210.0)" stroke="rgb(0,0,255)">
        <line x1="30" y1="-30" x2="75" y2="-33" stroke-width="3" stroke="#000000" />
         <text x="80" y="-30" style="stroke:#000000">X </text>

        <line x1="30" y1="-30" x2="30" y2="-75" stroke-width="3" stroke="#000000" />
         <text x="25" y="-85" style="stroke:#000000">Y </text>

        <line x1="30" y1="-30" x2="58" y2="-15" stroke-width="3" stroke="#000000" />
         <text x="65" y="-5" style="stroke:#000000">Z </text>
        <!--
            <line x1="0" y1="0" x2="23.253823911819495" y2="0" stroke-width="3" />
            <text x="0" y="20" style="stroke:#000000">1  mm </text>
        -->
    </g>
</svg>
